<svg xmlns="http://www.w3.org/2000/svg" viewBox="0 0 680 400" width="100%">
  <rect x="0" y="0" width="680" height="400" rx="16" fill="#E6F1FB"/>
  <circle cx="60" cy="60" r="3" fill="#B5D4F4" opacity="0.5"/>
  <circle cx="620" cy="50" r="4" fill="#B5D4F4" opacity="0.4"/>
  <circle cx="580" cy="370" r="3" fill="#B5D4F4" opacity="0.5"/>
  <circle cx="100" cy="380" r="2" fill="#B5D4F4" opacity="0.6"/>
  <circle cx="340" cy="30" r="2" fill="#B5D4F4" opacity="0.3"/>
  <circle cx="500" cy="80" r="2" fill="#B5D4F4" opacity="0.4"/>
  <circle cx="200" cy="370" r="3" fill="#B5D4F4" opacity="0.3"/>
  <rect x="50" y="140" width="130" height="100" rx="6" fill="#185FA5"/>
  <rect x="55" y="145" width="120" height="90" rx="4" fill="#fff"/>
  <text x="115" y="168" text-anchor="middle" fill="#0C447C" font-family="system-ui, sans-serif" font-size="11" font-weight="500">数据</text>
  <rect x="68" y="180" width="94" height="8" rx="3" fill="#E6F1FB"/>
  <rect x="68" y="194" width="80" height="8" rx="3" fill="#E6F1FB"/>
  <rect x="68" y="208" width="70" height="8" rx="3" fill="#E6F1FB"/>
  <text x="115" y="136" text-anchor="middle" fill="#185FA5" font-family="system-ui, sans-serif" font-size="13" font-weight="500">ima 知识库</text>
  <text x="115" y="250" text-anchor="middle" fill="#888780" font-family="system-ui, sans-serif" font-size="10">CSV · PDF · MD</text>
  <circle cx="560" cy="180" r="50" fill="#EEEDFE" stroke="#534AB7" stroke-width="1"/>
  <circle cx="560" cy="180" r="36" fill="#CECBF6"/>
  <circle cx="560" cy="180" r="22" fill="#AFA9EC"/>
  <circle cx="560" cy="180" r="8" fill="#7F77DD"/>
  <path d="M525 155 Q535 140 545 155 Q555 170 560 155 Q565 140 575 155 Q585 170 595 155" fill="none" stroke="#534AB7" stroke-width="1" opacity="0.4"/>
  <path d="M525 205 Q535 220 545 205 Q555 190 560 205 Q565 220 575 205 Q585 190 595 205" fill="none" stroke="#534AB7" stroke-width="1" opacity="0.4"/>
  <text x="560" y="136" text-anchor="middle" fill="#534AB7" font-family="system-ui, sans-serif" font-size="13" font-weight="500">AI 大脑</text>
  <text x="560" y="250" text-anchor="middle" fill="#888780" font-family="system-ui, sans-serif" font-size="10">读取 · 分析 · 生成</text>
  <circle cx="340" cy="130" r="24" fill="#FAEEDA" stroke="#BA7517" stroke-width="1"/>
  <circle cx="340" cy="120" r="8" fill="#FAEEDA" stroke="#BA7517" stroke-width="0.8"/>
  <ellipse cx="336" cy="127" rx="2" ry="1" fill="#633806"/>
  <ellipse cx="345" cy="127" rx="2" ry="1" fill="#633806"/>
  <path d="M338 130 Q340 133 342 130" fill="none" stroke="#633806" stroke-width="0.8"/>
  <rect x="316" y="154" width="48" height="70" rx="8" fill="#FAEEDA" stroke="#BA7517" stroke-width="1"/>
  <text x="340" y="188" text-anchor="middle" fill="#633806" font-family="system-ui, sans-serif" font-size="11" dominant-baseline="central">你</text>
  <text x="340" y="204" text-anchor="middle" fill="#854F0B" font-family="system-ui, sans-serif" font-size="9" dominant-baseline="central">只需说</text>
  <text x="340" y="216" text-anchor="middle" fill="#854F0B" font-family="system-ui, sans-serif" font-size="9" dominant-baseline="central">「我要什么」</text>
  <path d="M320 224 L340 240 L360 224" fill="none" stroke="#BA7517" stroke-width="1.2"/>
  <path d="M180 170 Q220 130 280 160 Q300 170 316 170" fill="none" stroke="#378ADD" stroke-width="1.8" stroke-dasharray="5 3" marker-end="url(#arrow-blue)"/>
  <text x="240" y="148" text-anchor="middle" fill="#185FA5" font-family="system-ui, sans-serif" font-size="10">提供数据</text>
  <path d="M364 170 Q380 130 420 160 Q460 190 510 180" fill="none" stroke="#7F77DD" stroke-width="1.8" stroke-dasharray="5 3" marker-end="url(#arrow-purple)"/>
  <text x="440" y="148" text-anchor="middle" fill="#534AB7" font-family="system-ui, sans-serif" font-size="10">发出指令</text>
  <path d="M510 200 Q480 300 300 320 Q160 330 180 220" fill="none" stroke="#97C459" stroke-width="1.2" stroke-dasharray="4 4" marker-end="url(#arrow-green)"/>
  <text x="340" y="330" text-anchor="middle" fill="#3B6D11" font-family="system-ui, sans-serif" font-size="10">迭代更新</text>
  <rect x="120" y="358" width="440" height="32" rx="16" fill="#185FA5"/>
  <text x="340" y="378" text-anchor="middle" fill="#fff" font-family="system-ui, sans-serif" font-size="13" font-weight="500" dominant-baseline="central">知识库 × AI × 你 = 无限可能</text>
  <defs>
    <marker id="arrow-blue" viewBox="0 0 10 10" refX="8" refY="5" markerWidth="6" markerHeight="6" orient="auto-start-reverse">
      <path d="M2 1L8 5L2 9" fill="none" stroke="#378ADD" stroke-width="1.5" stroke-linecap="round" stroke-linejoin="round"/>
    </marker>
    <marker id="arrow-purple" viewBox="0 0 10 10" refX="8" refY="5" markerWidth="6" markerHeight="6" orient="auto-start-reverse">
      <path d="M2 1L8 5L2 9" fill="none" stroke="#7F77DD" stroke-width="1.5" stroke-linecap="round" stroke-linejoin="round"/>
    </marker>
    <marker id="arrow-green" viewBox="0 0 10 10" refX="8" refY="5" markerWidth="6" markerHeight="6" orient="auto-start-reverse">
      <path d="M2 1L8 5L2 9" fill="none" stroke="#97C459" stroke-width="1.5" stroke-linecap="round" stroke-linejoin="round"/>
    </marker>
  </defs>
</svg>