<svg xmlns="http://www.w3.org/2000/svg" viewBox="0 0 680 380" width="100%">
  <defs>
    <marker id="arrow-red" viewBox="0 0 10 10" refX="8" refY="5" markerWidth="5" markerHeight="5" orient="auto-start-reverse">
      <path d="M2 1L8 5L2 9" fill="none" stroke="#F09595" stroke-width="1.5" stroke-linecap="round" stroke-linejoin="round"/>
    </marker>
    <marker id="arrow-green" viewBox="0 0 10 10" refX="8" refY="5" markerWidth="5" markerHeight="5" orient="auto-start-reverse">
      <path d="M2 1L8 5L2 9" fill="none" stroke="#97C459" stroke-width="1.5" stroke-linecap="round" stroke-linejoin="round"/>
    </marker>
  </defs>

  <rect x="40" y="20" width="290" height="44" rx="8" fill="#F7C1C1"/>
  <text x="185" y="46" text-anchor="middle" fill="#791F1F" font-family="system-ui, sans-serif" font-size="15" font-weight="500" dominant-baseline="central">❌  传统方式</text>

  <rect x="350" y="20" width="290" height="44" rx="8" fill="#9FE1CB"/>
  <text x="495" y="46" text-anchor="middle" fill="#085041" font-family="system-ui, sans-serif" font-size="15" font-weight="500" dominant-baseline="central">✅  AI + 知识库方式</text>

  <line x1="340" y1="20" x2="340" y2="340" stroke="#D3D1C7" stroke-width="1" stroke-dasharray="4 4"/>

  <rect x="50" y="84" width="270" height="50" rx="8" fill="#FCEBEB" stroke="#F09595" stroke-width="0.5"/>
  <circle cx="74" cy="109" r="14" fill="#E24B4A"/>
  <text x="74" y="114" text-anchor="middle" fill="#fff" font-family="system-ui, sans-serif" font-size="12" font-weight="500" dominant-baseline="central">1</text>
  <text x="100" y="103" fill="#A32D2D" font-family="system-ui, sans-serif" font-size="12" font-weight="500" dominant-baseline="central">到处找数据</text>
  <text x="100" y="120" fill="#A32D2D" font-family="system-ui, sans-serif" font-size="10" dominant-baseline="central">教育局官网 · 公众号 · 逐个搜索</text>

  <path d="M185 134 L185 148" stroke="#F09595" stroke-width="1.5" marker-end="url(#arrow-red)"/>

  <rect x="50" y="152" width="270" height="50" rx="8" fill="#FCEBEB" stroke="#F09595" stroke-width="0.5"/>
  <circle cx="74" cy="177" r="14" fill="#E24B4A"/>
  <text x="74" y="182" text-anchor="middle" fill="#fff" font-family="system-ui, sans-serif" font-size="12" font-weight="500" dominant-baseline="central">2</text>
  <text x="100" y="171" fill="#A32D2D" font-family="system-ui, sans-serif" font-size="12" font-weight="500" dominant-baseline="central">手动整理数据</text>
  <text x="100" y="188" fill="#A32D2D" font-family="system-ui, sans-serif" font-size="10" dominant-baseline="central">Excel 汇总 · 去重 · 校对</text>

  <path d="M185 202 L185 216" stroke="#F09595" stroke-width="1.5" marker-end="url(#arrow-red)"/>

  <rect x="50" y="220" width="270" height="50" rx="8" fill="#FCEBEB" stroke="#F09595" stroke-width="0.5"/>
  <circle cx="74" cy="245" r="14" fill="#E24B4A"/>
  <text x="74" y="250" text-anchor="middle" fill="#fff" font-family="system-ui, sans-serif" font-size="12" font-weight="500" dominant-baseline="central">3</text>
  <text x="100" y="239" fill="#A32D2D" font-family="system-ui, sans-serif" font-size="12" font-weight="500" dominant-baseline="central">写代码做网站</text>
  <text x="100" y="256" fill="#A32D2D" font-family="system-ui, sans-serif" font-size="10" dominant-baseline="central">HTML · CSS · JS · 测试 · 上线</text>

  <path d="M185 270 L185 284" stroke="#F09595" stroke-width="1.5" marker-end="url(#arrow-red)"/>

  <rect x="50" y="288" width="270" height="42" rx="8" fill="#FCEBEB" stroke="#F09595" stroke-width="0.5"/>
  <circle cx="74" cy="309" r="14" fill="#E24B4A"/>
  <text x="74" y="314" text-anchor="middle" fill="#fff" font-family="system-ui, sans-serif" font-size="12" font-weight="500" dominant-baseline="central">4</text>
  <text x="100" y="313" fill="#A32D2D" font-family="system-ui, sans-serif" font-size="12" font-weight="500" dominant-baseline="central">数据更新 → 重新做一遍</text>

  <rect x="360" y="84" width="270" height="50" rx="8" fill="#EAF3DE" stroke="#97C459" stroke-width="0.5"/>
  <circle cx="384" cy="109" r="14" fill="#639922"/>
  <text x="384" y="114" text-anchor="middle" fill="#fff" font-family="system-ui, sans-serif" font-size="12" font-weight="500" dominant-baseline="central">1</text>
  <text x="410" y="103" fill="#27500A" font-family="system-ui, sans-serif" font-size="12" font-weight="500" dominant-baseline="central">数据扔进 ima 知识库</text>
  <text x="410" y="120" fill="#3B6D11" font-family="system-ui, sans-serif" font-size="10" dominant-baseline="central">拖拽上传 · 自动解析 · 即存即用</text>

  <path d="M495 134 L495 148" stroke="#97C459" stroke-width="1.5" marker-end="url(#arrow-green)"/>

  <rect x="360" y="152" width="270" height="50" rx="8" fill="#EAF3DE" stroke="#97C459" stroke-width="0.5"/>
  <circle cx="384" cy="177" r="14" fill="#639922"/>
  <text x="384" y="182" text-anchor="middle" fill="#fff" font-family="system-ui, sans-serif" font-size="12" font-weight="500" dominant-baseline="central">2</text>
  <text x="410" y="171" fill="#27500A" font-family="system-ui, sans-serif" font-size="12" font-weight="500" dominant-baseline="central">告诉 AI 你要什么</text>
  <text x="410" y="188" fill="#3B6D11" font-family="system-ui, sans-serif" font-size="10" dominant-baseline="central">「做个莞深初升高志愿填报助手」</text>

  <path d="M495 202 L495 216" stroke="#97C459" stroke-width="1.5" marker-end="url(#arrow-green)"/>

  <rect x="360" y="220" width="270" height="50" rx="8" fill="#EAF3DE" stroke="#97C459" stroke-width="0.5"/>
  <circle cx="384" cy="245" r="14" fill="#639922"/>
  <text x="384" y="250" text-anchor="middle" fill="#fff" font-family="system-ui, sans-serif" font-size="12" font-weight="500" dominant-baseline="central">3</text>
  <text x="410" y="239" fill="#27500A" font-family="system-ui, sans-serif" font-size="12" font-weight="500" dominant-baseline="central">AI 读取知识库 + 生成网站</text>
  <text x="410" y="256" fill="#3B6D11" font-family="system-ui, sans-serif" font-size="10" dominant-baseline="central">MCP 直连 · 自动编程 · 开箱即用</text>

  <path d="M495 270 L495 284" stroke="#97C459" stroke-width="1.5" marker-end="url(#arrow-green)"/>

  <rect x="360" y="288" width="270" height="42" rx="8" fill="#EEEDFE" stroke="#AFA9EC" stroke-width="0.5"/>
  <circle cx="384" cy="309" r="14" fill="#7F77DD"/>
  <text x="384" y="314" text-anchor="middle" fill="#fff" font-family="system-ui, sans-serif" font-size="12" font-weight="500" dominant-baseline="central">+</text>
  <text x="410" y="313" fill="#3C3489" font-family="system-ui, sans-serif" font-size="12" font-weight="500" dominant-baseline="central">数据更新 → 对话里说一句就搞定</text>

  <rect x="80" y="348" width="520" height="28" rx="6" fill="#F1EFE8"/>
  <text x="340" y="366" text-anchor="middle" fill="#444441" font-family="system-ui, sans-serif" font-size="12" dominant-baseline="central">耗时 3天+  →  耗时 10分钟</text>
</svg>